<?xml version="1.0" standalone="no"?>
<!DOCTYPE svg PUBLIC "-//W3C//DTD SVG 20010904//EN"
 "http://www.w3.org/TR/2001/REC-SVG-20010904/DTD/svg10.dtd">
<svg version="1.0" xmlns="http://www.w3.org/2000/svg"
 width="128.000000pt" height="128.000000pt" viewBox="0 0 128.000000 128.000000"
 preserveAspectRatio="xMidYMid meet">
<metadata>
Created by potrace 1.11, written by Peter Selinger 2001-2013
</metadata>
<g transform="translate(0.000000,128.000000) scale(0.100000,-0.100000)"
fill="#000000" stroke="none">
<path d="M619 1186 c-45 -16 -106 -53 -116 -71 -5 -7 -32 -24 -60 -39 -73 -36
-138 -104 -160 -166 -18 -51 -18 -51 -53 -44 -78 16 -131 -2 -167 -54 -42 -64
-17 -202 47 -256 18 -14 35 -26 39 -26 5 0 11 -36 14 -79 11 -163 99 -278 255
-333 79 -28 111 -33 237 -32 163 0 289 46 369 134 62 69 94 151 94 246 -1 41
4 59 13 62 25 8 70 56 85 90 41 98 22 206 -41 236 -39 19 -65 21 -122 12 -33
-5 -43 -4 -43 7 0 28 -43 101 -86 144 -35 34 -43 48 -34 58 14 17 -13 27 -75
27 -37 0 -43 2 -37 16 3 10 13 22 21 29 14 11 14 13 1 14 -38 3 -87 -4 -112
-17 -27 -14 -28 -13 -28 9 0 13 5 28 12 35 16 16 -5 15 -53 -2z"/>
</g>
</svg>
